#!OML:ASF F:\VICON\USERDATA\INSTALL\rory3\rory3.ASF
:FULLY-SPECIFIED
:DEGREES
65
root 1.1284682311697685 17.909057223375996 46.82898428113231 -3.014643232859769 -1.8722354336931564 -3.694132268804017
lfemur -8.740455687272053 -0.07975588027506975 -14.531025739733206
ltibia 58.242136399026315
lfoot -5.139023376351388 -0.3111956594150316
ltoes -7.367242739840831
rfemur -11.10624944902942 2.613364131486999 27.286982810147858
rtibia 27.285829291292664
rfoot -16.974509498331706 -10.987792876959599
rtoes 0.46904199130949653
lowerback -1.0 -0.571755616472349 2.8471074231811553
upperback 0.12747766772397393 0.0011379170080416667 2.2555829894707147
thorax -5.4044107258314815 -0.01877779183938083 1.4579490711395668
lowerneck -16.605600050597527 -2.749740983240851 -1.4920526796380102
upperneck 21.756217852417564 -3.3756537723606184 -0.11086344191224218
head 9.6546998776552 -1.7217499134175265 -0.18747784619776103
lclavicle 4.1779632552414613e-16 -7.965289246238873e-16
lhumerus -29.218955502061018 2.119685612591584 81.12814679544994
lradius 20.623628275539907
lwrist 8.2498510003478
lhand -28.62995443934474 19.44683442522266
lfingers nan
lthumb -1.965237830911543 49.65363107730625
rclavicle 3.315835250065454e-16 -8.606205511913464e-16
rhumerus -29.267779490335286 -22.646270923730462 -76.0453673053479
rradius 32.000309042957696
rwrist 2.286634013592738
rhand -18.203502630900203 -1.0
rfingers nan
rthumb 8.445928612307748 -8.21679659937351
66
root 1.1406446541697792 17.908039202106885 46.95025444222051 -3.2400727000952796 -1.887245176973041 -4.423889452546832
lfemur -12.055675802805926 0.3125277052950943 -13.665906812962849
ltibia 58.173293560279696
lfoot -5.57874334583272 0.05792146409841781
ltoes -7.441427371572937
rfemur -7.0771104832264955 3.2340028919930774 28.367875028574975
rtibia 26.490881542093923
rfoot -16.84519062303353 -10.99621071302651
rtoes -0.17912096368812547
lowerback -1.0 -0.12458058005964912 3.691859416554178
upperback 0.13900707804910267 0.73328559269648 2.2439863158015263
thorax -5.477605973997094 0.34425163366966594 0.8741628229951617
lowerneck -16.628669039456387 -2.8353891513980103 -1.326768289924498
upperneck 21.633918612330532 -3.522868489966421 -0.091754246979871
head 9.638099676208737 -1.7788533116942447 -0.2465719921601951
lclavicle 4.200337596494936e-16 -7.96769646217039e-16
lhumerus -30.134131171493753 2.983827361821005 81.30861699843852
lradius 20.45272064770212
lwrist 8.447395202507787
lhand -28.886520928825988 19.289687286758063
lfingers nan
lthumb -2.2271196849840535 49.51607341510704
rclavicle 3.3823889403006283e-16 -8.571657260002045e-16
rhumerus -28.000405630829725 -21.230072763304555 -76.13065565316688
rradius 32.124957616696854
rwrist 2.123538660168947
rhand -18.12511135588815 -1.0
rfingers nan
rthumb 8.468656525118355 -7.9894181566690765
67
root 1.1402605715320366 17.905388952597907 47.1021629437318 -3.3604122728620287 -1.66974620445276 -5.727104128572285
lfemur -15.464859878234591 0.5035787889760368 -12.508898672397892
ltibia 56.93321515813331
lfoot -6.059871758022405 0.4159148267112829
ltoes -7.798683875568944
rfemur -4.318976030701686 3.9085695994299883 29.77937428516421
rtibia 26.392721322209383
rfoot -15.685626172953665 -10.423749072630883
rtoes -0.7436457244705186
lowerback -1.0 0.16248064267020154 4.736803358845734
upperback 0.12964631679979374 1.3208026840150988 2.275671455498043
thorax -5.508099861907803 0.6356581570547254 0.24406586820401444
lowerneck -16.61401203740894 -2.94030828155101 -1.2147989540956612
upperneck 21.52945800839498 -3.7067659126375 -0.035368469634352584
head 9.61742498936595 -1.8512335934355029 -0.29494758451134545
lclavicle 4.2289316133371192e-16 -7.972829239257155e-16
lhumerus -31.127953723336397 3.8415324279544523 81.44670060019136
lradius 20.547663334694914
lwrist 8.651882526076358
lhand -29.08929585133898 19.19802125598755
lfingers nan
lthumb -2.4662587513879086 49.391907852107956
rclavicle 3.472902652721396e-16 -8.524703325843399e-16
rhumerus -26.858695718238724 -19.812204320396688 -76.0402937317051
rradius 32.363764448080055
rwrist 1.9887143893843762
rhand -18.062292949528228 -1.0
rfingers nan
rthumb 8.447817222007213 -7.8532216242406445
68
root 1.1179690933623956 17.89736515940924 46.94765392768399 -3.520055180350097 -1.4294624024448406 -6.788452651253865
lfemur -18.5237322328878 0.4886361166467623 -11.908633148078788
ltibia 54.59418860635675
lfoot -6.563868761475104 1.3236215139364855
ltoes -7.7648059773889155
rfemur -2.890556938365682 4.431199311875452 30.779352368354413
rtibia 27.39347192520346
rfoot -13.717868918705005 -9.558118464095974
rtoes -0.934896964484015
lowerback -1.0 0.4397035278442466 5.572310894672295
upperback 0.11206166906668195 1.865938927064306 2.2486759483648924
thorax -5.502803321917863 0.8830555878294988 -0.4112803587767947
lowerneck -16.52563383562881 -3.049632186368572 -1.166626255445014
upperneck 21.47261316063464 -3.898775172538121 0.055560405632915644
head 9.6001071012216 -1.926398178822509 -0.3184652756531857
lclavicle 4.2658658261508565e-16 -7.97391593886311e-16
lhumerus -32.08952572154909 4.663492160835078 81.54067092664123
lradius 20.8279461093906
lwrist 8.8611067763898
lhand -29.0666698763263 19.35104193935767
lfingers nan
lthumb -2.5083211247187283 49.36752959976832
rclavicle 3.570730468341579e-16 -8.473816675028004e-16
rhumerus -26.055245074881835 -18.571968109497146 -75.87330195310491
rradius 32.69731757131008
rwrist 1.9153876539258254
rhand -18.016254035231583 -1.0
rfingers nan
rthumb 8.455300544155854 -7.72199850139306
